<svg width="190" height="93" viewBox="0 0 190 93" fill="none" xmlns="http://www.w3.org/2000/svg">
<path d="M24.9648 64H11.2148L11.3008 53.1719H24.9648C28.0872 53.1719 30.7227 52.4557 32.8711 51.0234C35.0195 49.5625 36.6523 47.4141 37.7695 44.5781C38.8867 41.7135 39.4453 38.2331 39.4453 34.1367V31.2578C39.4453 28.1641 39.1302 25.4427 38.5 23.0938C37.8698 20.7161 36.9388 18.7253 35.707 17.1211C34.4753 15.5169 32.9427 14.3138 31.1094 13.5117C29.3047 12.7096 27.2279 12.3086 24.8789 12.3086H10.957V1.4375H24.8789C29.1185 1.4375 32.9857 2.15365 36.4805 3.58594C40.0039 5.01823 43.0404 7.06641 45.5898 9.73047C48.168 12.3945 50.1589 15.5456 51.5625 19.1836C52.9661 22.8216 53.668 26.875 53.668 31.3438V34.1367C53.668 38.5768 52.9661 42.6302 51.5625 46.2969C50.1589 49.9349 48.168 53.0859 45.5898 55.75C43.0404 58.3854 40.0182 60.4193 36.5234 61.8516C33.0286 63.2839 29.1758 64 24.9648 64ZM19.1641 1.4375V64H5.15625V1.4375H19.1641ZM68.5885 1.4375H80.1901L95.2292 46.168L110.225 1.4375H121.827L99.9128 64H90.5026L68.5885 1.4375ZM61.8854 1.4375H73.7018L75.8932 47.8008V64H61.8854V1.4375ZM116.714 1.4375H128.573V64H114.522V47.8008L116.714 1.4375ZM171.079 47.5C171.079 46.4401 170.922 45.4948 170.607 44.6641C170.292 43.8047 169.719 43.0169 168.888 42.3008C168.057 41.5846 166.883 40.8685 165.365 40.1523C163.846 39.4076 161.855 38.6484 159.392 37.875C156.585 36.9583 153.906 35.9271 151.357 34.7812C148.836 33.6068 146.587 32.2461 144.611 30.6992C142.634 29.1523 141.073 27.3477 139.927 25.2852C138.81 23.2227 138.251 20.8164 138.251 18.0664C138.251 15.4023 138.839 12.9961 140.013 10.8477C141.187 8.69922 142.835 6.86589 144.954 5.34766C147.074 3.80078 149.566 2.6263 152.431 1.82422C155.296 0.99349 158.447 0.578125 161.884 0.578125C166.467 0.578125 170.492 1.39453 173.958 3.02734C177.453 4.63151 180.174 6.89453 182.122 9.81641C184.07 12.7096 185.044 16.0755 185.044 19.9141H171.122C171.122 18.224 170.764 16.7344 170.048 15.4453C169.361 14.1276 168.301 13.0964 166.868 12.3516C165.465 11.6068 163.703 11.2344 161.583 11.2344C159.521 11.2344 157.788 11.5495 156.384 12.1797C155.009 12.7812 153.964 13.612 153.247 14.6719C152.56 15.7318 152.216 16.8919 152.216 18.1523C152.216 19.1549 152.474 20.0716 152.99 20.9023C153.534 21.7044 154.307 22.4635 155.31 23.1797C156.341 23.8672 157.602 24.526 159.091 25.1562C160.581 25.7865 162.285 26.388 164.204 26.9609C167.556 28.0208 170.521 29.1953 173.099 30.4844C175.706 31.7734 177.897 33.2344 179.673 34.8672C181.449 36.5 182.781 38.3477 183.669 40.4102C184.586 42.4727 185.044 44.8073 185.044 47.4141C185.044 50.1927 184.5 52.6562 183.411 54.8047C182.352 56.9531 180.805 58.7865 178.771 60.3047C176.766 61.7943 174.359 62.9258 171.552 63.6992C168.745 64.4727 165.608 64.8594 162.142 64.8594C158.991 64.8594 155.883 64.4583 152.818 63.6562C149.753 62.8255 146.974 61.5651 144.482 59.875C142.018 58.1849 140.042 56.0365 138.552 53.4297C137.091 50.7943 136.361 47.6719 136.361 44.0625H150.368C150.368 45.9531 150.641 47.5573 151.185 48.875C151.729 50.1641 152.503 51.2096 153.505 52.0117C154.536 52.8138 155.783 53.3867 157.243 53.7305C158.704 54.0742 160.337 54.2461 162.142 54.2461C164.233 54.2461 165.923 53.9596 167.212 53.3867C168.53 52.7852 169.504 51.9688 170.134 50.9375C170.764 49.9062 171.079 48.7604 171.079 47.5Z" fill="#FD0000"/>
<path d="M8.97135 89H6.47135L6.48698 87.0312H8.97135C9.53906 87.0312 10.0182 86.901 10.4089 86.6406C10.7995 86.375 11.0964 85.9844 11.2995 85.4688C11.5026 84.9479 11.6042 84.3151 11.6042 83.5703V83.0469C11.6042 82.4844 11.5469 81.9896 11.4323 81.5625C11.3177 81.1302 11.1484 80.7682 10.9245 80.4766C10.7005 80.1849 10.4219 79.9661 10.0885 79.8203C9.76041 79.6745 9.38281 79.6016 8.95573 79.6016H6.42448V77.625H8.95573C9.72656 77.625 10.4297 77.7552 11.0651 78.0156C11.7057 78.276 12.2578 78.6484 12.7214 79.1328C13.1901 79.6172 13.5521 80.1901 13.8073 80.8516C14.0625 81.513 14.1901 82.25 14.1901 83.0625V83.5703C14.1901 84.3776 14.0625 85.1146 13.8073 85.7812C13.5521 86.4427 13.1901 87.0156 12.7214 87.5C12.2578 87.9792 11.7083 88.349 11.0729 88.6094C10.4375 88.8698 9.73698 89 8.97135 89ZM7.91666 77.625V89H5.36979V77.625H7.91666ZM19.9661 79.7891L17.0286 89H14.3099L18.5208 77.625H20.2396L19.9661 79.7891ZM22.4036 89L19.4583 79.7891L19.1536 77.625H20.8958L25.1224 89H22.4036ZM22.2786 84.7656V86.7344H16.349V84.7656H22.2786ZM28.4453 77.625V89H25.9062V77.625H28.4453ZM37.7995 82.2031V84.1719H31.9089V82.2031H37.7995ZM32.7135 77.625V89H30.1667V77.625H32.7135ZM39.5573 77.625V89H37.0182V77.625H39.5573ZM45.9818 79.7891L43.0443 89H40.3255L44.5365 77.625H46.2552L45.9818 79.7891ZM48.4193 89L45.474 79.7891L45.1693 77.625H46.9115L51.138 89H48.4193ZM48.2943 84.7656V86.7344H42.3646V84.7656H48.2943ZM56.0937 77.625V89H53.5547V77.625H56.0937ZM59.5547 77.625V79.6016H50.1641V77.625H59.5547ZM66.2526 86C66.2526 85.8073 66.224 85.6354 66.1667 85.4844C66.1094 85.3281 66.0052 85.1849 65.8542 85.0547C65.7031 84.9245 65.4896 84.7943 65.2135 84.6641C64.9375 84.5286 64.5755 84.3906 64.1276 84.25C63.6172 84.0833 63.1302 83.8958 62.6667 83.6875C62.2083 83.474 61.7995 83.2266 61.4401 82.9453C61.0807 82.6641 60.7969 82.3359 60.5885 81.9609C60.3854 81.5859 60.2839 81.1484 60.2839 80.6484C60.2839 80.1641 60.3906 79.7266 60.6042 79.3359C60.8177 78.9453 61.1172 78.612 61.5026 78.3359C61.888 78.0547 62.3411 77.8411 62.862 77.6953C63.3828 77.5443 63.9557 77.4688 64.5807 77.4688C65.4141 77.4688 66.1458 77.6172 66.776 77.9141C67.4115 78.2057 67.9062 78.6172 68.2604 79.1484C68.6146 79.6745 68.7917 80.2865 68.7917 80.9844H66.2604C66.2604 80.6771 66.1953 80.4062 66.0651 80.1719C65.9401 79.9323 65.7474 79.7448 65.487 79.6094C65.2318 79.474 64.9115 79.4062 64.526 79.4062C64.151 79.4062 63.8359 79.4635 63.5807 79.5781C63.3307 79.6875 63.1406 79.8385 63.0104 80.0312C62.8854 80.224 62.8229 80.4349 62.8229 80.6641C62.8229 80.8464 62.8698 81.013 62.9635 81.1641C63.0625 81.3099 63.2031 81.4479 63.3854 81.5781C63.5729 81.7031 63.8021 81.8229 64.0729 81.9375C64.3437 82.0521 64.6536 82.1615 65.0026 82.2656C65.612 82.4583 66.151 82.6719 66.6198 82.9062C67.0937 83.1406 67.4922 83.4062 67.8151 83.7031C68.138 84 68.3802 84.3359 68.5417 84.7109C68.7083 85.0859 68.7917 85.5104 68.7917 85.9844C68.7917 86.4896 68.6927 86.9375 68.4948 87.3281C68.3021 87.7188 68.0208 88.0521 67.651 88.3281C67.2865 88.599 66.849 88.8047 66.3385 88.9453C65.8281 89.0859 65.2578 89.1562 64.6276 89.1562C64.0547 89.1562 63.4896 89.0833 62.9323 88.9375C62.375 88.7865 61.8698 88.5573 61.4167 88.25C60.9687 87.9427 60.6094 87.5521 60.3385 87.0781C60.0729 86.599 59.9401 86.0312 59.9401 85.375H62.487C62.487 85.7188 62.5365 86.0104 62.6354 86.25C62.7344 86.4844 62.875 86.6745 63.0573 86.8203C63.2448 86.9661 63.4714 87.0703 63.737 87.1328C64.0026 87.1953 64.2995 87.2266 64.6276 87.2266C65.0078 87.2266 65.3151 87.1745 65.5495 87.0703C65.7891 86.9609 65.9661 86.8125 66.0807 86.625C66.1953 86.4375 66.2526 86.2292 66.2526 86ZM76.1849 77.625H78.7318V85.0938C78.7318 85.9792 78.5443 86.724 78.1693 87.3281C77.7995 87.9323 77.2838 88.388 76.6224 88.6953C75.9609 89.0026 75.1953 89.1562 74.3255 89.1562C73.4505 89.1562 72.6797 89.0026 72.013 88.6953C71.3516 88.388 70.8307 87.9323 70.4505 87.3281C70.0755 86.724 69.888 85.9792 69.888 85.0938V77.625H72.4427V85.0938C72.4427 85.5833 72.5156 85.9844 72.6615 86.2969C72.8125 86.6042 73.0286 86.8307 73.3099 86.9766C73.5911 87.1172 73.9297 87.1875 74.3255 87.1875C74.7213 87.1875 75.0573 87.1172 75.3333 86.9766C75.6146 86.8307 75.8255 86.6042 75.9661 86.2969C76.112 85.9844 76.1849 85.5833 76.1849 85.0938V77.625Z" fill="#FD0000"/>
<path d="M85.0182 77.625H87.0026L89.9245 85.9766L92.8464 77.625H94.8307L90.7214 89H89.1276L85.0182 77.625ZM83.9479 77.625H85.9245L86.2839 85.7656V89H83.9479V77.625ZM93.9245 77.625H95.9089V89H93.5651V85.7656L93.9245 77.625ZM97.1302 84.8594V84.6953C97.1302 84.0755 97.2187 83.5052 97.3958 82.9844C97.5729 82.4583 97.8307 82.0026 98.1693 81.6172C98.5078 81.2318 98.9245 80.9323 99.4193 80.7188C99.9141 80.5 100.482 80.3906 101.122 80.3906C101.763 80.3906 102.333 80.5 102.833 80.7188C103.333 80.9323 103.753 81.2318 104.091 81.6172C104.435 82.0026 104.695 82.4583 104.872 82.9844C105.049 83.5052 105.138 84.0755 105.138 84.6953V84.8594C105.138 85.474 105.049 86.0443 104.872 86.5703C104.695 87.0911 104.435 87.5469 104.091 87.9375C103.753 88.3229 103.336 88.6224 102.841 88.8359C102.346 89.0495 101.779 89.1562 101.138 89.1562C100.497 89.1562 99.9271 89.0495 99.4271 88.8359C98.9323 88.6224 98.513 88.3229 98.1693 87.9375C97.8307 87.5469 97.5729 87.0911 97.3958 86.5703C97.2187 86.0443 97.1302 85.474 97.1302 84.8594ZM99.3802 84.6953V84.8594C99.3802 85.2135 99.4115 85.5443 99.474 85.8516C99.5365 86.1589 99.6354 86.4297 99.7708 86.6641C99.9115 86.8932 100.094 87.0729 100.318 87.2031C100.542 87.3333 100.815 87.3984 101.138 87.3984C101.451 87.3984 101.719 87.3333 101.943 87.2031C102.167 87.0729 102.346 86.8932 102.482 86.6641C102.617 86.4297 102.716 86.1589 102.779 85.8516C102.846 85.5443 102.88 85.2135 102.88 84.8594V84.6953C102.88 84.3516 102.846 84.0286 102.779 83.7266C102.716 83.4193 102.615 83.1484 102.474 82.9141C102.339 82.6745 102.159 82.487 101.935 82.3516C101.711 82.2161 101.44 82.1484 101.122 82.1484C100.805 82.1484 100.534 82.2161 100.31 82.3516C100.091 82.487 99.9115 82.6745 99.7708 82.9141C99.6354 83.1484 99.5365 83.4193 99.474 83.7266C99.4115 84.0286 99.3802 84.3516 99.3802 84.6953ZM106.188 77H108.438V87.0625L108.211 89H106.188V77ZM113.789 84.6875V84.8516C113.789 85.4818 113.721 86.0599 113.586 86.5859C113.456 87.112 113.253 87.5677 112.977 87.9531C112.701 88.3333 112.357 88.6302 111.945 88.8438C111.539 89.0521 111.06 89.1562 110.508 89.1562C109.992 89.1562 109.544 89.0521 109.164 88.8438C108.789 88.6354 108.474 88.3411 108.219 87.9609C107.964 87.5807 107.758 87.1354 107.602 86.625C107.445 86.1146 107.328 85.5573 107.25 84.9531V84.5938C107.328 83.9896 107.445 83.4323 107.602 82.9219C107.758 82.4115 107.964 81.9661 108.219 81.5859C108.474 81.2057 108.789 80.9115 109.164 80.7031C109.539 80.4948 109.982 80.3906 110.492 80.3906C111.049 80.3906 111.534 80.4974 111.945 80.7109C112.362 80.9193 112.706 81.2161 112.977 81.6016C113.253 81.9818 113.456 82.4349 113.586 82.9609C113.721 83.4818 113.789 84.0573 113.789 84.6875ZM111.539 84.8516V84.6875C111.539 84.3438 111.513 84.0208 111.461 83.7188C111.414 83.4115 111.331 83.1432 111.211 82.9141C111.091 82.6797 110.927 82.4948 110.719 82.3594C110.516 82.224 110.253 82.1562 109.93 82.1562C109.622 82.1562 109.362 82.2083 109.148 82.3125C108.935 82.4167 108.758 82.5625 108.617 82.75C108.482 82.9375 108.38 83.1615 108.312 83.4219C108.245 83.6771 108.203 83.9583 108.188 84.2656V85.2891C108.203 85.7005 108.271 86.0651 108.391 86.3828C108.516 86.6953 108.703 86.9427 108.953 87.125C109.208 87.3021 109.539 87.3906 109.945 87.3906C110.263 87.3906 110.526 87.3281 110.734 87.2031C110.943 87.0781 111.104 86.901 111.219 86.6719C111.339 86.4427 111.422 86.1745 111.469 85.8672C111.516 85.5547 111.539 85.2161 111.539 84.8516ZM117.229 80.5469V89H114.971V80.5469H117.229ZM114.831 78.3438C114.831 78.0156 114.945 77.7448 115.174 77.5312C115.404 77.3177 115.711 77.2109 116.096 77.2109C116.477 77.2109 116.781 77.3177 117.01 77.5312C117.245 77.7448 117.362 78.0156 117.362 78.3438C117.362 78.6719 117.245 78.9427 117.01 79.1562C116.781 79.3698 116.477 79.4766 116.096 79.4766C115.711 79.4766 115.404 79.3698 115.174 79.1562C114.945 78.9427 114.831 78.6719 114.831 78.3438ZM121.13 77V89H118.872V77H121.13ZM126.547 89.1562C125.891 89.1562 125.302 89.0521 124.781 88.8438C124.26 88.6302 123.818 88.3359 123.453 87.9609C123.094 87.5859 122.818 87.151 122.625 86.6562C122.432 86.1562 122.336 85.625 122.336 85.0625V84.75C122.336 84.1094 122.427 83.5234 122.609 82.9922C122.792 82.4609 123.052 82 123.391 81.6094C123.734 81.2188 124.151 80.9193 124.641 80.7109C125.13 80.4974 125.682 80.3906 126.297 80.3906C126.896 80.3906 127.427 80.4896 127.891 80.6875C128.354 80.8854 128.742 81.1667 129.055 81.5312C129.372 81.8958 129.612 82.3333 129.773 82.8438C129.935 83.349 130.016 83.9115 130.016 84.5312V85.4688H123.297V83.9688H127.805V83.7969C127.805 83.4844 127.747 83.2057 127.633 82.9609C127.523 82.7109 127.357 82.513 127.133 82.3672C126.909 82.2214 126.622 82.1484 126.273 82.1484C125.977 82.1484 125.721 82.2135 125.508 82.3438C125.294 82.474 125.12 82.6562 124.984 82.8906C124.854 83.125 124.755 83.401 124.688 83.7188C124.625 84.0312 124.594 84.375 124.594 84.75V85.0625C124.594 85.401 124.641 85.7135 124.734 86C124.833 86.2865 124.971 86.5339 125.148 86.7422C125.331 86.9505 125.549 87.112 125.805 87.2266C126.065 87.3411 126.359 87.3984 126.688 87.3984C127.094 87.3984 127.471 87.3203 127.82 87.1641C128.174 87.0026 128.479 86.7604 128.734 86.4375L129.828 87.625C129.651 87.8802 129.409 88.125 129.102 88.3594C128.799 88.5938 128.435 88.7865 128.008 88.9375C127.581 89.0833 127.094 89.1562 126.547 89.1562ZM140.677 86.0234C140.677 85.8203 140.646 85.638 140.583 85.4766C140.526 85.3099 140.417 85.1589 140.255 85.0234C140.094 84.8828 139.867 84.7448 139.576 84.6094C139.284 84.474 138.906 84.3333 138.443 84.1875C137.927 84.0208 137.438 83.8333 136.974 83.625C136.516 83.4167 136.109 83.1745 135.755 82.8984C135.406 82.6172 135.13 82.2917 134.927 81.9219C134.729 81.5521 134.63 81.1224 134.63 80.6328C134.63 80.1589 134.734 79.7292 134.943 79.3438C135.151 78.9531 135.443 78.6198 135.818 78.3438C136.193 78.0625 136.635 77.8464 137.146 77.6953C137.661 77.5443 138.227 77.4688 138.841 77.4688C139.68 77.4688 140.411 77.6198 141.036 77.9219C141.661 78.224 142.146 78.638 142.49 79.1641C142.839 79.6901 143.013 80.2917 143.013 80.9688H140.685C140.685 80.6354 140.615 80.3438 140.474 80.0938C140.339 79.8385 140.13 79.638 139.849 79.4922C139.573 79.3464 139.224 79.2734 138.802 79.2734C138.396 79.2734 138.057 79.3359 137.786 79.4609C137.516 79.5807 137.313 79.7448 137.177 79.9531C137.042 80.1562 136.974 80.3854 136.974 80.6406C136.974 80.8333 137.021 81.0078 137.115 81.1641C137.214 81.3203 137.359 81.4661 137.552 81.6016C137.745 81.737 137.982 81.8646 138.263 81.9844C138.544 82.1042 138.87 82.2214 139.24 82.3359C139.859 82.5234 140.404 82.7344 140.872 82.9688C141.346 83.2031 141.742 83.4661 142.06 83.7578C142.378 84.0495 142.617 84.3802 142.779 84.75C142.94 85.1198 143.021 85.5391 143.021 86.0078C143.021 86.5026 142.924 86.9453 142.732 87.3359C142.539 87.7266 142.26 88.0573 141.896 88.3281C141.531 88.599 141.096 88.8047 140.591 88.9453C140.086 89.0859 139.521 89.1562 138.896 89.1562C138.333 89.1562 137.779 89.0833 137.232 88.9375C136.685 88.7865 136.188 88.5599 135.74 88.2578C135.297 87.9557 134.943 87.5703 134.677 87.1016C134.411 86.6328 134.279 86.0781 134.279 85.4375H136.63C136.63 85.7917 136.685 86.0911 136.794 86.3359C136.904 86.5807 137.057 86.7786 137.255 86.9297C137.458 87.0807 137.698 87.1901 137.974 87.2578C138.255 87.3255 138.563 87.3594 138.896 87.3594C139.302 87.3594 139.635 87.3021 139.896 87.1875C140.161 87.0729 140.357 86.9141 140.482 86.7109C140.612 86.5078 140.677 86.2786 140.677 86.0234ZM148.031 89.1562C147.375 89.1562 146.786 89.0521 146.266 88.8438C145.745 88.6302 145.302 88.3359 144.938 87.9609C144.578 87.5859 144.302 87.151 144.109 86.6562C143.917 86.1562 143.82 85.625 143.82 85.0625V84.75C143.82 84.1094 143.911 83.5234 144.094 82.9922C144.276 82.4609 144.536 82 144.875 81.6094C145.219 81.2188 145.635 80.9193 146.125 80.7109C146.615 80.4974 147.167 80.3906 147.781 80.3906C148.38 80.3906 148.911 80.4896 149.375 80.6875C149.839 80.8854 150.227 81.1667 150.539 81.5312C150.857 81.8958 151.096 82.3333 151.258 82.8438C151.419 83.349 151.5 83.9115 151.5 84.5312V85.4688H144.781V83.9688H149.289V83.7969C149.289 83.4844 149.232 83.2057 149.117 82.9609C149.008 82.7109 148.841 82.513 148.617 82.3672C148.393 82.2214 148.107 82.1484 147.758 82.1484C147.461 82.1484 147.206 82.2135 146.992 82.3438C146.779 82.474 146.604 82.6562 146.469 82.8906C146.339 83.125 146.24 83.401 146.172 83.7188C146.109 84.0312 146.078 84.375 146.078 84.75V85.0625C146.078 85.401 146.125 85.7135 146.219 86C146.318 86.2865 146.456 86.5339 146.633 86.7422C146.815 86.9505 147.034 87.112 147.289 87.2266C147.549 87.3411 147.844 87.3984 148.172 87.3984C148.578 87.3984 148.956 87.3203 149.305 87.1641C149.659 87.0026 149.964 86.7604 150.219 86.4375L151.312 87.625C151.135 87.8802 150.893 88.125 150.586 88.3594C150.284 88.5938 149.919 88.7865 149.492 88.9375C149.065 89.0833 148.578 89.1562 148.031 89.1562ZM154.698 82.3906V89H152.448V80.5469H154.565L154.698 82.3906ZM157.245 80.4922L157.206 82.5781C157.096 82.5625 156.964 82.5495 156.807 82.5391C156.656 82.5234 156.518 82.5156 156.393 82.5156C156.076 82.5156 155.799 82.5573 155.565 82.6406C155.336 82.7188 155.143 82.8359 154.987 82.9922C154.836 83.1484 154.721 83.3385 154.643 83.5625C154.57 83.7865 154.529 84.0417 154.518 84.3281L154.065 84.1875C154.065 83.6406 154.12 83.138 154.229 82.6797C154.339 82.2161 154.497 81.8125 154.706 81.4688C154.919 81.125 155.18 80.8594 155.487 80.6719C155.794 80.4844 156.146 80.3906 156.542 80.3906C156.667 80.3906 156.794 80.401 156.924 80.4219C157.055 80.4375 157.161 80.4609 157.245 80.4922ZM160.99 87.3594L162.865 80.5469H165.216L162.365 89H160.943L160.99 87.3594ZM159.701 80.5469L161.583 87.3672L161.622 89H160.193L157.341 80.5469H159.701ZM168.266 80.5469V89H166.008V80.5469H168.266ZM165.867 78.3438C165.867 78.0156 165.982 77.7448 166.211 77.5312C166.44 77.3177 166.747 77.2109 167.133 77.2109C167.513 77.2109 167.818 77.3177 168.047 77.5312C168.281 77.7448 168.398 78.0156 168.398 78.3438C168.398 78.6719 168.281 78.9427 168.047 79.1562C167.818 79.3698 167.513 79.4766 167.133 79.4766C166.747 79.4766 166.44 79.3698 166.211 79.1562C165.982 78.9427 165.867 78.6719 165.867 78.3438ZM173.284 87.3984C173.56 87.3984 173.805 87.3464 174.018 87.2422C174.232 87.1328 174.398 86.9818 174.518 86.7891C174.643 86.5911 174.708 86.3594 174.714 86.0938H176.831C176.826 86.6875 176.667 87.2161 176.354 87.6797C176.042 88.138 175.622 88.5 175.096 88.7656C174.57 89.026 173.982 89.1562 173.331 89.1562C172.674 89.1562 172.102 89.0469 171.612 88.8281C171.128 88.6094 170.724 88.3073 170.401 87.9219C170.078 87.5312 169.836 87.0781 169.674 86.5625C169.513 86.0417 169.432 85.4844 169.432 84.8906V84.6641C169.432 84.0651 169.513 83.5078 169.674 82.9922C169.836 82.4714 170.078 82.0182 170.401 81.6328C170.724 81.2422 171.128 80.9375 171.612 80.7188C172.096 80.5 172.664 80.3906 173.315 80.3906C174.008 80.3906 174.615 80.5234 175.135 80.7891C175.661 81.0547 176.073 81.4349 176.37 81.9297C176.672 82.4193 176.826 83 176.831 83.6719H174.714C174.708 83.3906 174.648 83.1354 174.534 82.9062C174.424 82.6771 174.263 82.4948 174.049 82.3594C173.841 82.2188 173.583 82.1484 173.276 82.1484C172.948 82.1484 172.68 82.2188 172.471 82.3594C172.263 82.4948 172.102 82.6823 171.987 82.9219C171.872 83.1562 171.792 83.4245 171.745 83.7266C171.703 84.0234 171.682 84.3359 171.682 84.6641V84.8906C171.682 85.2188 171.703 85.5339 171.745 85.8359C171.786 86.138 171.865 86.4062 171.979 86.6406C172.099 86.875 172.263 87.0599 172.471 87.1953C172.68 87.3307 172.951 87.3984 173.284 87.3984ZM181.693 89.1562C181.036 89.1562 180.448 89.0521 179.927 88.8438C179.406 88.6302 178.964 88.3359 178.599 87.9609C178.24 87.5859 177.964 87.151 177.771 86.6562C177.578 86.1562 177.482 85.625 177.482 85.0625V84.75C177.482 84.1094 177.573 83.5234 177.755 82.9922C177.938 82.4609 178.198 82 178.536 81.6094C178.88 81.2188 179.297 80.9193 179.786 80.7109C180.276 80.4974 180.828 80.3906 181.443 80.3906C182.042 80.3906 182.573 80.4896 183.036 80.6875C183.5 80.8854 183.888 81.1667 184.201 81.5312C184.518 81.8958 184.758 82.3333 184.919 82.8438C185.081 83.349 185.161 83.9115 185.161 84.5312V85.4688H178.443V83.9688H182.951V83.7969C182.951 83.4844 182.893 83.2057 182.779 82.9609C182.669 82.7109 182.503 82.513 182.279 82.3672C182.055 82.2214 181.768 82.1484 181.419 82.1484C181.122 82.1484 180.867 82.2135 180.654 82.3438C180.44 82.474 180.266 82.6562 180.13 82.8906C180 83.125 179.901 83.401 179.833 83.7188C179.771 84.0312 179.74 84.375 179.74 84.75V85.0625C179.74 85.401 179.786 85.7135 179.88 86C179.979 86.2865 180.117 86.5339 180.294 86.7422C180.477 86.9505 180.695 87.112 180.951 87.2266C181.211 87.3411 181.505 87.3984 181.833 87.3984C182.24 87.3984 182.617 87.3203 182.966 87.1641C183.32 87.0026 183.625 86.7604 183.88 86.4375L184.974 87.625C184.797 87.8802 184.555 88.125 184.247 88.3594C183.945 88.5938 183.581 88.7865 183.154 88.9375C182.727 89.0833 182.24 89.1562 181.693 89.1562Z" fill="black"/>
</svg>
